<?xml version="1.0" encoding="UTF-8"?>
<!DOCTYPE svg PUBLIC "-//W3C//DTD SVG 1.1//EN" "http://www.w3.org/Graphics/SVG/1.1/DTD/svg11.dtd">
<svg xmlns="http://www.w3.org/2000/svg" version="1.1" width="380px" height="276px" style="shape-rendering:geometricPrecision; text-rendering:geometricPrecision; image-rendering:optimizeQuality; fill-rule:evenodd; clip-rule:evenodd" xmlns:xlink="http://www.w3.org/1999/xlink">
<g><path style="opacity:1" fill="#1c0808" d="M 281.5,22.5 C 276.032,23.7443 270.699,25.411 265.5,27.5C 204.833,27.5 144.167,27.5 83.5,27.5C 81.4434,32.614 79.1101,37.614 76.5,42.5C 75.8333,42.5 75.1667,42.5 74.5,42.5C 77.3356,36.8288 80.1689,31.1621 83,25.5C 85.6604,24.1657 88.4937,23.3324 91.5,23C 144.684,22.0914 197.85,22.5914 251,24.5C 261.179,23.8854 271.346,23.2188 281.5,22.5 Z"/></g>
<g><path style="opacity:1" fill="#c82c34" d="M 265.5,27.5 C 265.704,29.6854 266.37,31.6854 267.5,33.5C 265.661,32.4923 264.328,30.9923 263.5,29C 236.169,28.5 208.835,28.3334 181.5,28.5C 178.5,28.5 175.5,28.5 172.5,28.5C 144.833,28.5 117.167,28.5 89.5,28.5C 87.8333,28.5 86.1667,28.5 84.5,28.5C 81.2932,36.5848 77.7932,44.5848 74,52.5C 73.3292,53.2524 72.4959,53.5858 71.5,53.5C 72.8951,49.7099 74.5617,46.0432 76.5,42.5C 79.1101,37.614 81.4434,32.614 83.5,27.5C 144.167,27.5 204.833,27.5 265.5,27.5 Z"/></g>
<g><path style="opacity:1" fill="#e13624" d="M 172.5,28.5 C 175.5,28.5 178.5,28.5 181.5,28.5C 182.968,29.7791 183.635,31.4458 183.5,33.5C 184.5,33.5 185.5,33.5 186.5,33.5C 186.5,32.1667 186.5,30.8333 186.5,29.5C 198.333,29.9394 210,30.6061 221.5,31.5C 222.268,32.2625 222.768,33.2625 223,34.5C 223.383,33.944 223.883,33.6107 224.5,33.5C 223.872,40.2292 222.872,46.8959 221.5,53.5C 220.9,52.0998 219.9,51.0998 218.5,50.5C 218.389,49.8826 218.056,49.3826 217.5,49C 218.713,46.3135 219.38,43.4802 219.5,40.5C 216.833,40.5 214.167,40.5 211.5,40.5C 211.5,37.5 211.5,34.5 211.5,31.5C 209.234,31.1412 207.401,31.8078 206,33.5C 204.766,40.8327 203.6,48.166 202.5,55.5C 201.861,54.9032 201.528,54.0698 201.5,53C 203.077,45.8801 203.91,38.7135 204,31.5C 203.963,33.9739 203.13,35.9739 201.5,37.5C 201.261,35.5328 201.594,33.6995 202.5,32C 197.511,31.5007 192.511,31.3341 187.5,31.5C 187.739,33.4672 187.406,35.3005 186.5,37C 189.808,37.1821 192.141,38.0154 193.5,39.5C 195.304,39.0135 196.971,38.3468 198.5,37.5C 197.279,43.6168 195.945,49.6168 194.5,55.5C 194.649,50.4246 195.315,45.4246 196.5,40.5C 194.5,40.5 192.5,40.5 190.5,40.5C 189.673,45.4767 189.006,50.4767 188.5,55.5C 190.167,55.5 191.833,55.5 193.5,55.5C 191.306,56.7665 188.972,56.7665 186.5,55.5C 185.795,53.3279 184.795,51.3279 183.5,49.5C 185.156,47.5878 185.489,45.5878 184.5,43.5C 183.583,44.1272 182.583,44.4606 181.5,44.5C 182.402,40.4588 182.402,36.4588 181.5,32.5C 179.833,32.1667 178.167,31.8333 176.5,31.5C 173.721,31.92 171.055,32.5867 168.5,33.5C 168.739,35.4672 168.406,37.3005 167.5,39C 170.662,39.4455 173.662,38.9455 176.5,37.5C 176.709,39.7144 175.876,41.381 174,42.5C 172.079,40.9972 169.912,40.3305 167.5,40.5C 166.673,45.4767 166.006,50.4767 165.5,55.5C 167.167,55.5 168.833,55.5 170.5,55.5C 170.993,53.1944 171.326,50.861 171.5,48.5C 172.5,48.5 173.5,48.5 174.5,48.5C 174.552,50.9029 174.219,53.2362 173.5,55.5C 170.555,56.4675 167.555,56.6342 164.5,56C 163.874,55.2496 163.374,54.4162 163,53.5C 162.583,54.756 161.75,55.4226 160.5,55.5C 162.337,51.015 161.67,47.015 158.5,43.5C 158.977,42.5224 159.643,41.6891 160.5,41C 156.459,40.1735 152.459,40.3401 148.5,41.5C 147.368,46.0913 146.701,50.7579 146.5,55.5C 145.871,50.6819 145.871,45.6819 146.5,40.5C 142.731,40.244 139.064,40.5773 135.5,41.5C 135.5,40.1667 135.5,38.8333 135.5,37.5C 137.774,37.7151 139.941,38.3818 142,39.5C 145.812,37.9175 146.312,35.5841 143.5,32.5C 140.232,31.513 136.898,31.1796 133.5,31.5C 137.351,30.1905 141.351,30.1905 145.5,31.5C 146.333,33.1667 147.167,34.8333 148,36.5C 148.198,34.6183 148.698,32.9516 149.5,31.5C 153.674,30.7179 158.008,30.0512 162.5,29.5C 166.023,30.4566 169.356,30.1233 172.5,28.5 Z"/></g>
<g><path style="opacity:1" fill="#f9b85a" d="M 221.5,31.5 C 220.897,33.6794 220.23,35.846 219.5,38C 219.833,38.3333 220.167,38.6667 220.5,39C 218.527,39.4955 216.527,39.6621 214.5,39.5C 215.092,36.8728 215.425,34.2062 215.5,31.5C 217.5,31.5 219.5,31.5 221.5,31.5 Z"/></g>
<g><path style="opacity:1" fill="#df3b24" d="M 254.5,55.5 C 256.704,48.3143 257.538,40.981 257,33.5C 252.822,31.6013 248.322,30.9347 243.5,31.5C 242.629,39.6043 241.295,47.6043 239.5,55.5C 237.549,54.3586 235.549,54.3586 233.5,55.5C 233.821,53.9519 234.821,53.2852 236.5,53.5C 236.909,49.1235 237.575,44.7902 238.5,40.5C 236.5,40.5 234.5,40.5 232.5,40.5C 232.296,43.5176 231.963,46.5176 231.5,49.5C 230.5,49.5 229.5,49.5 228.5,49.5C 228.833,45.5 229.167,41.5 229.5,37.5C 232.224,37.5343 234.224,38.2009 235.5,39.5C 239.736,38.2246 240.403,35.8913 237.5,32.5C 235.833,32.1667 234.167,31.8333 232.5,31.5C 229.721,31.92 227.055,32.5867 224.5,33.5C 224.5,32.5 224.5,31.5 224.5,30.5C 235.533,29.3742 246.533,29.5409 257.5,31C 258.641,36.7504 258.807,42.5837 258,48.5C 257.14,51.0835 255.973,53.4168 254.5,55.5 Z"/></g>
<g><path style="opacity:1" fill="#f7b452" d="M 218.5,50.5 C 217.549,51.9187 217.216,53.5853 217.5,55.5C 215.5,55.5 213.5,55.5 211.5,55.5C 211.963,52.5176 212.296,49.5176 212.5,46.5C 211.325,46.281 210.325,46.6143 209.5,47.5C 208.518,50.0956 207.851,52.7623 207.5,55.5C 205.833,55.5 204.167,55.5 202.5,55.5C 203.6,48.166 204.766,40.8327 206,33.5C 207.401,31.8078 209.234,31.1412 211.5,31.5C 211.5,34.5 211.5,37.5 211.5,40.5C 214.167,40.5 216.833,40.5 219.5,40.5C 219.38,43.4802 218.713,46.3135 217.5,49C 218.056,49.3826 218.389,49.8826 218.5,50.5 Z"/></g>
<g><path style="opacity:1" fill="#f7b553" d="M 254.5,55.5 C 252.833,55.5 251.167,55.5 249.5,55.5C 249.776,49.4529 250.443,43.4529 251.5,37.5C 249.876,37.3601 248.71,38.0267 248,39.5C 247.162,44.8461 246.329,50.1794 245.5,55.5C 243.5,55.5 241.5,55.5 239.5,55.5C 241.295,47.6043 242.629,39.6043 243.5,31.5C 248.322,30.9347 252.822,31.6013 257,33.5C 257.538,40.981 256.704,48.3143 254.5,55.5 Z"/></g>
<g><path style="opacity:1" fill="#dd4225" d="M 249.5,55.5 C 248.167,55.5 246.833,55.5 245.5,55.5C 246.329,50.1794 247.162,44.8461 248,39.5C 248.71,38.0267 249.876,37.3601 251.5,37.5C 250.443,43.4529 249.776,49.4529 249.5,55.5 Z"/></g>
<g><path style="opacity:1" fill="#f6b352" d="M 233.5,55.5 C 229.258,55.8495 225.258,55.1828 221.5,53.5C 222.872,46.8959 223.872,40.2292 224.5,33.5C 227.055,32.5867 229.721,31.92 232.5,31.5C 234.167,31.8333 235.833,32.1667 237.5,32.5C 240.403,35.8913 239.736,38.2246 235.5,39.5C 234.224,38.2009 232.224,37.5343 229.5,37.5C 229.167,41.5 228.833,45.5 228.5,49.5C 229.5,49.5 230.5,49.5 231.5,49.5C 231.963,46.5176 232.296,43.5176 232.5,40.5C 234.5,40.5 236.5,40.5 238.5,40.5C 237.575,44.7902 236.909,49.1235 236.5,53.5C 234.821,53.2852 233.821,53.9519 233.5,55.5 Z"/></g>
<g><path style="opacity:0.212" fill="#330602" d="M 74.5,42.5 C 75.1667,42.5 75.8333,42.5 76.5,42.5C 74.5617,46.0432 72.8951,49.7099 71.5,53.5C 68.1667,59.5 64.8333,65.5 61.5,71.5C 65.2418,61.624 69.5751,51.9573 74.5,42.5 Z"/></g>
<g><path style="opacity:1" fill="#e52927" d="M 89.5,28.5 C 117.167,28.5 144.833,28.5 172.5,28.5C 169.356,30.1233 166.023,30.4566 162.5,29.5C 158.008,30.0512 153.674,30.7179 149.5,31.5C 148.698,32.9516 148.198,34.6183 148,36.5C 147.167,34.8333 146.333,33.1667 145.5,31.5C 141.351,30.1905 137.351,30.1905 133.5,31.5C 133.179,33.0481 132.179,33.7148 130.5,33.5C 129.937,39.5645 128.937,45.5645 127.5,51.5C 128.842,54.3916 131.175,55.7249 134.5,55.5C 137.279,55.08 139.945,54.4133 142.5,53.5C 142.261,51.5328 142.594,49.6995 143.5,48C 140.338,47.5545 137.338,48.0545 134.5,49.5C 134.401,46.7628 134.735,44.0961 135.5,41.5C 139.064,40.5773 142.731,40.244 146.5,40.5C 145.871,45.6819 145.871,50.6819 146.5,55.5C 148.288,55.7852 149.955,55.4519 151.5,54.5C 152.167,52.1667 152.833,49.8333 153.5,47.5C 154.325,46.6143 155.325,46.281 156.5,46.5C 156.148,49.4284 155.482,52.2617 154.5,55C 156.473,55.4955 158.473,55.6621 160.5,55.5C 161.75,55.4226 162.583,54.756 163,53.5C 163.374,54.4162 163.874,55.2496 164.5,56C 167.555,56.6342 170.555,56.4675 173.5,55.5C 175.5,55.5 177.5,55.5 179.5,55.5C 179.931,51.6634 180.598,47.9968 181.5,44.5C 182.583,44.4606 183.583,44.1272 184.5,43.5C 185.489,45.5878 185.156,47.5878 183.5,49.5C 184.795,51.3279 185.795,53.3279 186.5,55.5C 188.972,56.7665 191.306,56.7665 193.5,55.5C 193.833,55.5 194.167,55.5 194.5,55.5C 195.945,49.6168 197.279,43.6168 198.5,37.5C 199.5,37.5 200.5,37.5 201.5,37.5C 203.13,35.9739 203.963,33.9739 204,31.5C 203.91,38.7135 203.077,45.8801 201.5,53C 201.528,54.0698 201.861,54.9032 202.5,55.5C 204.167,55.5 205.833,55.5 207.5,55.5C 207.851,52.7623 208.518,50.0956 209.5,47.5C 210.325,46.6143 211.325,46.281 212.5,46.5C 212.296,49.5176 211.963,52.5176 211.5,55.5C 213.5,55.5 215.5,55.5 217.5,55.5C 215.769,56.2066 214.103,57.2066 212.5,58.5C 209.533,56.9956 206.533,56.6622 203.5,57.5C 202.926,59.0589 202.26,60.5589 201.5,62C 210.343,62.1704 219.01,62.6704 227.5,63.5C 227.5,64.1667 227.167,64.5 226.5,64.5C 191.449,64.1532 156.449,63.1532 121.5,61.5C 121.167,61.5 120.833,61.5 120.5,61.5C 120.5,60.8333 120.167,60.5 119.5,60.5C 108.341,59.6694 97.0074,59.1694 85.5,59C 86.91,58.6322 87.91,57.7989 88.5,56.5C 87.4478,54.8901 87.4478,53.2234 88.5,51.5C 87.2214,50.4555 85.8881,49.4555 84.5,48.5C 85.0983,47.2054 85.5983,45.8721 86,44.5C 87,43.1667 88,43.1667 89,44.5C 90.4534,39.2352 90.6201,33.9019 89.5,28.5 Z"/></g>
<g><path style="opacity:1" fill="#f7b452" d="M 160.5,55.5 C 158.473,55.6621 156.473,55.4955 154.5,55C 155.482,52.2617 156.148,49.4284 156.5,46.5C 155.325,46.281 154.325,46.6143 153.5,47.5C 152.833,49.8333 152.167,52.1667 151.5,54.5C 149.955,55.4519 148.288,55.7852 146.5,55.5C 146.701,50.7579 147.368,46.0913 148.5,41.5C 152.459,40.3401 156.459,40.1735 160.5,41C 159.643,41.6891 158.977,42.5224 158.5,43.5C 161.67,47.015 162.337,51.015 160.5,55.5 Z"/></g>
<g><path style="opacity:1" fill="#f8b654" d="M 110.5,40.5 C 113.244,40.2479 115.744,40.9145 118,42.5C 120.256,40.9145 122.756,40.2479 125.5,40.5C 124.535,45.443 123.868,50.443 123.5,55.5C 121.5,55.5 119.5,55.5 117.5,55.5C 117.799,53.396 117.466,51.396 116.5,49.5C 114.717,51.0225 114.051,53.0225 114.5,55.5C 112.5,55.5 110.5,55.5 108.5,55.5C 109.648,50.5705 110.315,45.5705 110.5,40.5 Z"/></g>
<g><path style="opacity:1" fill="#f8b955" d="M 181.5,44.5 C 180.598,47.9968 179.931,51.6634 179.5,55.5C 177.5,55.5 175.5,55.5 173.5,55.5C 174.219,53.2362 174.552,50.9029 174.5,48.5C 173.5,48.5 172.5,48.5 171.5,48.5C 171.326,50.861 170.993,53.1944 170.5,55.5C 168.833,55.5 167.167,55.5 165.5,55.5C 166.006,50.4767 166.673,45.4767 167.5,40.5C 169.912,40.3305 172.079,40.9972 174,42.5C 175.876,41.381 176.709,39.7144 176.5,37.5C 173.662,38.9455 170.662,39.4455 167.5,39C 168.406,37.3005 168.739,35.4672 168.5,33.5C 171.055,32.5867 173.721,31.92 176.5,31.5C 178.167,31.8333 179.833,32.1667 181.5,32.5C 182.402,36.4588 182.402,40.4588 181.5,44.5 Z"/></g>
<g><path style="opacity:1" fill="#faba55" d="M 105.5,46.5 C 105.037,49.4824 104.704,52.4824 104.5,55.5C 102.5,55.5 100.5,55.5 98.5,55.5C 98.9629,52.5176 99.2962,49.5176 99.5,46.5C 98.5,46.5 97.5,46.5 96.5,46.5C 96.0371,49.4824 95.7038,52.4824 95.5,55.5C 93.4727,55.6621 91.4727,55.4955 89.5,55C 90.3038,51.8826 90.9705,48.716 91.5,45.5C 92.404,44.791 92.7373,43.791 92.5,42.5C 96.8333,42.5 101.167,42.5 105.5,42.5C 105.5,43.8333 105.5,45.1667 105.5,46.5 Z"/></g>
<g><path style="opacity:1" fill="#f6b652" d="M 133.5,31.5 C 136.898,31.1796 140.232,31.513 143.5,32.5C 146.312,35.5841 145.812,37.9175 142,39.5C 139.941,38.3818 137.774,37.7151 135.5,37.5C 135.5,38.8333 135.5,40.1667 135.5,41.5C 134.735,44.0961 134.401,46.7628 134.5,49.5C 137.338,48.0545 140.338,47.5545 143.5,48C 142.594,49.6995 142.261,51.5328 142.5,53.5C 139.945,54.4133 137.279,55.08 134.5,55.5C 131.175,55.7249 128.842,54.3916 127.5,51.5C 128.937,45.5645 129.937,39.5645 130.5,33.5C 132.179,33.7148 133.179,33.0481 133.5,31.5 Z"/></g>
<g><path style="opacity:1" fill="#f9af55" d="M 194.5,55.5 C 194.167,55.5 193.833,55.5 193.5,55.5C 191.833,55.5 190.167,55.5 188.5,55.5C 189.006,50.4767 189.673,45.4767 190.5,40.5C 192.5,40.5 194.5,40.5 196.5,40.5C 195.315,45.4246 194.649,50.4246 194.5,55.5 Z"/></g>
<g><path style="opacity:1" fill="#f9bd57" d="M 114.5,31.5 C 118.226,31.1774 121.893,31.5108 125.5,32.5C 126.374,34.7466 126.708,37.0799 126.5,39.5C 123.756,39.7521 121.256,39.0855 119,37.5C 116.744,39.0855 114.244,39.7521 111.5,39.5C 111.34,37.8008 111.506,36.1341 112,34.5C 113.417,33.9221 114.25,32.9221 114.5,31.5 Z"/></g>
<g><path style="opacity:1" fill="#f4a850" d="M 105.5,46.5 C 105.5,45.1667 105.5,43.8333 105.5,42.5C 101.167,42.5 96.8333,42.5 92.5,42.5C 92.7373,43.791 92.404,44.791 91.5,45.5C 92.1667,40.8333 92.8333,36.1667 93.5,31.5C 95.5,31.5 97.5,31.5 99.5,31.5C 99.0371,34.4824 98.7038,37.4824 98.5,40.5C 99.5,40.5 100.5,40.5 101.5,40.5C 99.8356,34.1097 102.169,31.1097 108.5,31.5C 108.022,36.7271 107.022,41.7271 105.5,46.5 Z"/></g>
<g><path style="opacity:1" fill="#fbba5a" d="M 159.5,31.5 C 161.167,31.5 162.833,31.5 164.5,31.5C 164.167,34.1667 163.833,36.8333 163.5,39.5C 161.473,39.6621 159.473,39.4955 157.5,39C 158.355,36.5644 159.021,34.0644 159.5,31.5 Z"/></g>
<g><path style="opacity:1" fill="#f9bc55" d="M 149.5,31.5 C 151.5,31.5 153.5,31.5 155.5,31.5C 156.847,37.6988 154.513,40.1988 148.5,39C 149.435,36.6194 149.768,34.1194 149.5,31.5 Z"/></g>
<g><path style="opacity:1" fill="#fac259" d="M 201.5,37.5 C 200.5,37.5 199.5,37.5 198.5,37.5C 196.971,38.3468 195.304,39.0135 193.5,39.5C 192.141,38.0154 189.808,37.1821 186.5,37C 187.406,35.3005 187.739,33.4672 187.5,31.5C 192.511,31.3341 197.511,31.5007 202.5,32C 201.594,33.6995 201.261,35.5328 201.5,37.5 Z"/></g>
<g><path style="opacity:1" fill="#440000" d="M 85.5,61.5 C 96.6544,60.5052 107.988,60.1719 119.5,60.5C 120.167,60.5 120.5,60.8333 120.5,61.5C 120.5,79.5 120.5,97.5 120.5,115.5C 119.833,97.8333 119.167,80.1667 118.5,62.5C 107.679,61.5054 96.6794,61.1721 85.5,61.5 Z"/></g>
<g><path style="opacity:1" fill="#373737" d="M 281.5,22.5 C 284.97,21.8748 287.804,22.8748 290,25.5C 305.7,55.1865 321.367,84.8531 337,114.5C 337.74,115.749 337.573,116.749 336.5,117.5C 329.131,118.24 321.798,119.24 314.5,120.5C 313.821,117.642 312.488,115.142 310.5,113C 313.875,111.971 315.042,109.804 314,106.5C 311.534,110.663 310.701,110.496 311.5,106C 309.5,105.333 308.167,104 307.5,102C 306.551,101.383 305.718,101.549 305,102.5C 302.387,96.9421 300.054,91.2755 298,85.5C 297.722,86.4158 297.222,87.0825 296.5,87.5C 295.833,87.5 295.5,87.1667 295.5,86.5C 293.408,79.6433 290.742,72.9766 287.5,66.5C 286.676,64.5794 285.343,63.246 283.5,62.5C 277.927,53.0259 272.594,43.3592 267.5,33.5C 266.37,31.6854 265.704,29.6854 265.5,27.5C 270.699,25.411 276.032,23.7443 281.5,22.5 Z"/></g>
<g><path style="opacity:1" fill="#fbd650" d="M 86.5,63.5 C 96.8333,63.5 107.167,63.5 117.5,63.5C 117.17,81.3412 117.503,99.0079 118.5,116.5C 123.167,120.5 127.5,124.833 131.5,129.5C 131.624,131.582 132.624,133.082 134.5,134C 132.956,134.29 131.623,134.956 130.5,136C 132.878,136.511 135.212,137.178 137.5,138C 136.833,138.333 136.167,138.667 135.5,139C 137.002,139.583 138.335,140.416 139.5,141.5C 154.822,142.333 170.156,142.833 185.5,143C 186,143.5 186.5,144 187,144.5C 187.775,153.215 187.608,161.881 186.5,170.5C 186.5,171.167 186.167,171.5 185.5,171.5C 178.14,171.442 170.806,170.942 163.5,170C 162.256,165.885 162.256,161.719 163.5,157.5C 163.182,156.353 162.516,155.519 161.5,155C 154.167,154.833 146.833,154.667 139.5,154.5C 131.802,154.503 124.468,155.169 117.5,156.5C 116.523,159.287 116.19,162.287 116.5,165.5C 113.213,164.4 110.213,162.733 107.5,160.5C 108.115,158.884 109.115,157.551 110.5,156.5C 109.696,155.059 109.029,153.559 108.5,152C 110.223,148.834 109.389,146.667 106,145.5C 104.7,146.707 103.2,147.374 101.5,147.5C 102.353,151.36 104.687,154.027 108.5,155.5C 107.395,156.892 106.061,158.059 104.5,159C 101.372,159.058 101.038,158.225 103.5,156.5C 101.263,154.353 99.2632,152.02 97.5,149.5C 97.722,147.945 98.3887,146.611 99.5,145.5C 99.1667,145.167 98.8333,144.833 98.5,144.5C 97.4495,145.885 96.1161,146.885 94.5,147.5C 91.2964,146.56 88.6297,144.893 86.5,142.5C 86.8333,141.833 87.1667,141.167 87.5,140.5C 85.5,139.167 83.8333,137.5 82.5,135.5C 81.1667,138.167 79.8333,138.167 78.5,135.5C 78.1439,132.312 76.4772,130.145 73.5,129C 74.3279,128.085 75.3279,127.419 76.5,127C 71.9436,125.112 68.2769,122.112 65.5,118C 65.8333,117.5 66.1667,117 66.5,116.5C 69.1922,119.543 72.5256,121.21 76.5,121.5C 77.8407,118.396 77.5074,115.562 75.5,113C 76.7839,112.316 77.9505,112.483 79,113.5C 80.1097,111.603 80.2764,109.77 79.5,108C 76.2605,107.558 74.4271,109.058 74,112.5C 72.4452,114.146 70.7785,114.479 69,113.5C 68.3333,111.5 68.3333,109.5 69,107.5C 70.0113,108.337 71.1779,108.67 72.5,108.5C 72.5,106.833 72.5,105.167 72.5,103.5C 69.7081,103.452 67.8747,104.785 67,107.5C 66.5065,105.866 66.3398,104.199 66.5,102.5C 72.8983,89.3703 79.565,76.3703 86.5,63.5 Z"/></g>
<g><path style="opacity:1" fill="#fecf58" d="M 156.5,90.5 C 156.167,90.5 155.833,90.5 155.5,90.5C 154.874,94.7609 154.041,99.0942 153,103.5C 152.501,97.8431 152.334,92.1764 152.5,86.5C 175.673,86.8308 198.673,86.4975 221.5,85.5C 222.825,80.0992 222.825,74.5992 221.5,69C 189.997,68.1693 158.664,68.336 127.5,69.5C 126.833,84.3388 126.167,99.3388 125.5,114.5C 124.176,98.2694 124.176,82.1028 125.5,66C 158.832,65.5 192.165,65.3333 225.5,65.5C 225.5,73.5 225.5,81.5 225.5,89.5C 202.327,89.1692 179.327,89.5025 156.5,90.5 Z"/></g>
<g><path style="opacity:1" fill="#e7212b" d="M 181.5,28.5 C 208.835,28.3334 236.169,28.5 263.5,29C 264.328,30.9923 265.661,32.4923 267.5,33.5C 272.594,43.3592 277.927,53.0259 283.5,62.5C 286.952,70.9124 290.952,78.9124 295.5,86.5C 295.5,87.1667 295.833,87.5 296.5,87.5C 296.5,88.1667 296.5,88.8333 296.5,89.5C 297.205,92.2443 297.205,94.911 296.5,97.5C 295.346,95.1441 294.013,94.9774 292.5,97C 293.46,98.4194 294.293,99.9194 295,101.5C 297.48,97.6467 299.314,97.9801 300.5,102.5C 299.5,102.5 298.5,102.5 297.5,102.5C 297.421,103.93 297.754,105.264 298.5,106.5C 297.349,107.731 296.183,107.731 295,106.5C 294.311,107.357 293.478,108.023 292.5,108.5C 291.833,106.833 291.167,105.167 290.5,103.5C 289.914,103.709 289.414,104.043 289,104.5C 288.28,102.944 287.113,101.944 285.5,101.5C 282.31,96.4532 279.643,91.1199 277.5,85.5C 273.398,76.9624 269.565,68.2957 266,59.5C 253.865,59.1989 241.698,59.5322 229.5,60.5C 228.596,61.209 228.263,62.209 228.5,63.5C 228.167,63.5 227.833,63.5 227.5,63.5C 219.01,62.6704 210.343,62.1704 201.5,62C 202.26,60.5589 202.926,59.0589 203.5,57.5C 206.533,56.6622 209.533,56.9956 212.5,58.5C 214.103,57.2066 215.769,56.2066 217.5,55.5C 217.216,53.5853 217.549,51.9187 218.5,50.5C 219.9,51.0998 220.9,52.0998 221.5,53.5C 225.258,55.1828 229.258,55.8495 233.5,55.5C 235.549,54.3586 237.549,54.3586 239.5,55.5C 241.5,55.5 243.5,55.5 245.5,55.5C 246.833,55.5 248.167,55.5 249.5,55.5C 251.167,55.5 252.833,55.5 254.5,55.5C 255.973,53.4168 257.14,51.0835 258,48.5C 258.807,42.5837 258.641,36.7504 257.5,31C 246.533,29.5409 235.533,29.3742 224.5,30.5C 224.5,31.5 224.5,32.5 224.5,33.5C 223.883,33.6107 223.383,33.944 223,34.5C 222.768,33.2625 222.268,32.2625 221.5,31.5C 210,30.6061 198.333,29.9394 186.5,29.5C 186.5,30.8333 186.5,32.1667 186.5,33.5C 185.5,33.5 184.5,33.5 183.5,33.5C 183.635,31.4458 182.968,29.7791 181.5,28.5 Z"/></g>
<g><path style="opacity:1" fill="#d94220" d="M 221.5,85.5 C 198.167,85.5 174.833,85.5 151.5,85.5C 174.327,84.5025 197.327,84.1692 220.5,84.5C 220.5,79.8333 220.5,75.1667 220.5,70.5C 189.833,70.5 159.167,70.5 128.5,70.5C 128.5,84.5 128.5,98.5 128.5,112.5C 127.504,98.3431 127.171,84.0097 127.5,69.5C 158.664,68.336 189.997,68.1693 221.5,69C 222.825,74.5992 222.825,80.0992 221.5,85.5 Z"/></g>
<g><path style="opacity:1" fill="#be2d35" d="M 229.5,60.5 C 241.698,59.5322 253.865,59.1989 266,59.5C 269.565,68.2957 273.398,76.9624 277.5,85.5C 272.74,77.4911 268.073,69.3245 263.5,61C 252.172,60.5001 240.838,60.3335 229.5,60.5 Z"/></g>
<g><path style="opacity:1" fill="#d9c271" d="M 86.5,63.5 C 96.9869,62.5056 107.654,62.1722 118.5,62.5C 118.5,80.5 118.5,98.5 118.5,116.5C 117.503,99.0079 117.17,81.3412 117.5,63.5C 107.167,63.5 96.8333,63.5 86.5,63.5 Z"/></g>
<g><path style="opacity:1" fill="#4b201e" d="M 283.5,62.5 C 285.343,63.246 286.676,64.5794 287.5,66.5C 290.742,72.9766 293.408,79.6433 295.5,86.5C 290.952,78.9124 286.952,70.9124 283.5,62.5 Z"/></g>
<g><path style="opacity:1" fill="#ad362e" d="M 120.5,61.5 C 120.833,61.5 121.167,61.5 121.5,61.5C 121.333,79.5031 121.5,97.5031 122,115.5C 122.708,116.381 123.542,117.047 124.5,117.5C 128.817,121.412 133.151,125.412 137.5,129.5C 138.5,131.167 139.833,132.5 141.5,133.5C 141.833,134.833 142.167,136.167 142.5,137.5C 134.86,130.527 127.527,123.194 120.5,115.5C 120.5,97.5 120.5,79.5 120.5,61.5 Z"/></g>
<g><path style="opacity:1" fill="#ba2129" d="M 71.5,53.5 C 71.4889,55.5466 71.1556,57.5466 70.5,59.5C 65.2303,68.6544 60.2303,77.9878 55.5,87.5C 53.9178,89.0147 52.5845,90.6814 51.5,92.5C 51.5,91.8333 51.5,91.1667 51.5,90.5C 54.5822,84.001 57.9155,77.6676 61.5,71.5C 64.8333,65.5 68.1667,59.5 71.5,53.5 Z"/></g>
<g><path style="opacity:1" fill="#cb471e" d="M 121.5,61.5 C 156.449,63.1532 191.449,64.1532 226.5,64.5C 191.833,64.5 157.167,64.5 122.5,64.5C 122.333,81.17 122.5,97.8367 123,114.5C 124.039,115.244 124.539,116.244 124.5,117.5C 123.542,117.047 122.708,116.381 122,115.5C 121.5,97.5031 121.333,79.5031 121.5,61.5 Z"/></g>
<g><path style="opacity:1" fill="#c63e21" d="M 227.5,63.5 C 227.833,63.5 228.167,63.5 228.5,63.5C 228.5,72.8333 228.5,82.1667 228.5,91.5C 205.498,91.3334 182.498,91.5 159.5,92C 158.944,92.3826 158.611,92.8826 158.5,93.5C 157.087,96.2186 156.42,99.2186 156.5,102.5C 155.517,98.7016 155.183,94.7016 155.5,90.5C 155.833,90.5 156.167,90.5 156.5,90.5C 179.833,90.5 203.167,90.5 226.5,90.5C 226.5,81.8333 226.5,73.1667 226.5,64.5C 227.167,64.5 227.5,64.1667 227.5,63.5 Z"/></g>
<g><path style="opacity:1" fill="#942620" d="M 229.5,60.5 C 229.5,71.5 229.5,82.5 229.5,93.5C 205.833,93.5 182.167,93.5 158.5,93.5C 158.611,92.8826 158.944,92.3826 159.5,92C 182.498,91.5 205.498,91.3334 228.5,91.5C 228.5,82.1667 228.5,72.8333 228.5,63.5C 228.263,62.209 228.596,61.209 229.5,60.5 Z"/></g>
<g><path style="opacity:1" fill="#fec35c" d="M 151.5,85.5 C 174.833,85.5 198.167,85.5 221.5,85.5C 198.673,86.4975 175.673,86.8308 152.5,86.5C 152.334,92.1764 152.501,97.8431 153,103.5C 154.041,99.0942 154.874,94.7609 155.5,90.5C 155.183,94.7016 155.517,98.7016 156.5,102.5C 157.833,104.167 159.167,105.833 160.5,107.5C 158.906,107.08 157.406,106.414 156,105.5C 155.5,105.833 155,106.167 154.5,106.5C 155.853,107.524 156.52,108.857 156.5,110.5C 154.496,109.327 152.996,107.66 152,105.5C 151.5,98.8417 151.334,92.175 151.5,85.5 Z"/></g>
<g><path style="opacity:1" fill="#290a02" d="M 229.5,60.5 C 240.838,60.3335 252.172,60.5001 263.5,61C 268.073,69.3245 272.74,77.4911 277.5,85.5C 279.643,91.1199 282.31,96.4532 285.5,101.5C 287.824,106.817 290.157,112.15 292.5,117.5C 290.43,120.703 288.097,123.703 285.5,126.5C 280.14,131.528 274.807,136.528 269.5,141.5C 266.923,143.955 264.589,146.622 262.5,149.5C 254.889,155.443 247.889,162.109 241.5,169.5C 237.853,172.811 234.187,176.145 230.5,179.5C 229.667,162.51 229.167,145.51 229,128.5C 228.617,127.944 228.117,127.611 227.5,127.5C 221.444,120.442 214.778,114.109 207.5,108.5C 193.006,107.669 178.339,107.169 163.5,107C 158.945,103.666 157.278,99.1656 158.5,93.5C 182.167,93.5 205.833,93.5 229.5,93.5C 229.5,82.5 229.5,71.5 229.5,60.5 Z"/></g>
<g><path style="opacity:1" fill="#f5d467" d="M 231.5,95.5 C 208.673,96.4975 185.673,96.8308 162.5,96.5C 162.338,98.5273 162.505,100.527 163,102.5C 163.75,103.126 164.584,103.626 165.5,104C 180.167,104.333 194.833,104.667 209.5,105C 210.252,105.671 210.586,106.504 210.5,107.5C 209.711,107.217 209.044,106.717 208.5,106C 193.5,105.667 178.5,105.333 163.5,105C 162.619,104.292 161.953,103.458 161.5,102.5C 161.5,100.167 161.5,97.8333 161.5,95.5C 184.833,95.5 208.167,95.5 231.5,95.5 Z"/></g>
<g><path style="opacity:1" fill="#cbb56b" d="M 231.5,94.5 C 231.5,94.8333 231.5,95.1667 231.5,95.5C 208.167,95.5 184.833,95.5 161.5,95.5C 161.5,97.8333 161.5,100.167 161.5,102.5C 160.527,100.052 160.194,97.3854 160.5,94.5C 184.167,94.5 207.833,94.5 231.5,94.5 Z"/></g>
<g><path style="opacity:1" fill="#fbd551" d="M 262.5,63.5 C 272.209,81.0827 281.542,98.916 290.5,117C 285.675,122.991 280.342,128.491 274.5,133.5C 271.712,133.132 269.046,132.632 266.5,132C 267.435,134.381 267.768,136.881 267.5,139.5C 266.448,139.351 265.448,139.517 264.5,140C 265.696,140.654 265.696,141.154 264.5,141.5C 263.065,139.599 261.398,139.266 259.5,140.5C 260.376,141.251 261.376,141.751 262.5,142C 261.809,143.067 261.309,144.234 261,145.5C 260,145.5 259,145.5 258,145.5C 255.656,148.261 252.822,150.428 249.5,152C 249.833,152.333 250.167,152.667 250.5,153C 249.809,154.067 249.309,155.234 249,156.5C 247.817,155.269 246.651,155.269 245.5,156.5C 246.025,157.192 246.692,157.692 247.5,158C 245.392,158.36 243.392,159.027 241.5,160C 241.833,160.333 242.167,160.667 242.5,161C 241.495,162.507 240.162,163.673 238.5,164.5C 239.891,166.936 239.391,167.602 237,166.5C 236.51,167.793 236.343,169.127 236.5,170.5C 235.167,170.5 233.833,170.5 232.5,170.5C 232.833,155.818 232.499,141.152 231.5,126.5C 228.526,124.994 228.193,123.328 230.5,121.5C 228.373,118.535 227.206,118.869 227,122.5C 226.082,120.624 224.582,119.624 222.5,119.5C 218.167,115.833 214.167,111.833 210.5,107.5C 210.586,106.504 210.252,105.671 209.5,105C 194.833,104.667 180.167,104.333 165.5,104C 164.584,103.626 163.75,103.126 163,102.5C 162.505,100.527 162.338,98.5273 162.5,96.5C 185.673,96.8308 208.673,96.4975 231.5,95.5C 231.5,95.1667 231.5,94.8333 231.5,94.5C 231.5,94.1667 231.5,93.8333 231.5,93.5C 232.494,83.6806 232.827,73.6806 232.5,63.5C 242.5,63.5 252.5,63.5 262.5,63.5 Z"/></g>
<g><path style="opacity:1" fill="#eacf72" d="M 262.5,63.5 C 252.5,63.5 242.5,63.5 232.5,63.5C 232.827,73.6806 232.494,83.6806 231.5,93.5C 231.5,83.1667 231.5,72.8333 231.5,62.5C 242.014,62.1724 252.347,62.5058 262.5,63.5 Z"/></g>
<g><path style="opacity:1" fill="#3f2e2d" d="M 314.5,120.5 C 314.158,121.338 313.492,121.672 312.5,121.5C 307.675,110.516 302.341,99.849 296.5,89.5C 296.5,88.8333 296.5,88.1667 296.5,87.5C 297.222,87.0825 297.722,86.4158 298,85.5C 300.054,91.2755 302.387,96.9421 305,102.5C 305.718,101.549 306.551,101.383 307.5,102C 308.167,104 309.5,105.333 311.5,106C 310.701,110.496 311.534,110.663 314,106.5C 315.042,109.804 313.875,111.971 310.5,113C 312.488,115.142 313.821,117.642 314.5,120.5 Z"/></g>
<g><path style="opacity:1" fill="#c62832" d="M 66.5,96.5 C 63.9125,103.347 60.5791,109.68 56.5,115.5C 56.9629,112.518 57.2962,109.518 57.5,106.5C 58.8221,106.67 59.9887,106.337 61,105.5C 62.3571,102.102 64.1904,99.1019 66.5,96.5 Z"/></g>
<g><path style="opacity:1" fill="#b82e2a" d="M 158.5,93.5 C 157.278,99.1656 158.945,103.666 163.5,107C 178.339,107.169 193.006,107.669 207.5,108.5C 193.01,109.496 178.343,109.829 163.5,109.5C 162.5,108.833 161.5,108.167 160.5,107.5C 159.167,105.833 157.833,104.167 156.5,102.5C 156.42,99.2186 157.087,96.2186 158.5,93.5 Z"/></g>
<g><path style="opacity:1" fill="#d9252e" d="M 296.5,89.5 C 302.341,99.849 307.675,110.516 312.5,121.5C 309.5,124.167 306.5,126.833 303.5,129.5C 303.67,128.178 303.337,127.011 302.5,126C 303.678,125.033 305.011,124.533 306.5,124.5C 304.308,121.531 304.308,118.698 306.5,116C 306.333,115.5 306.167,115 306,114.5C 304.013,115.218 302.179,116.218 300.5,117.5C 299.253,115.994 299.253,114.494 300.5,113C 302.256,112.798 303.922,112.298 305.5,111.5C 304.537,108.717 303.37,106.05 302,103.5C 300.038,106.655 298.372,109.988 297,113.5C 295.89,111.963 294.39,111.297 292.5,111.5C 293.812,114.024 294.312,116.691 294,119.5C 291.564,122.447 288.731,124.78 285.5,126.5C 288.097,123.703 290.43,120.703 292.5,117.5C 290.157,112.15 287.824,106.817 285.5,101.5C 287.113,101.944 288.28,102.944 289,104.5C 289.414,104.043 289.914,103.709 290.5,103.5C 291.167,105.167 291.833,106.833 292.5,108.5C 293.478,108.023 294.311,107.357 295,106.5C 296.183,107.731 297.349,107.731 298.5,106.5C 297.754,105.264 297.421,103.93 297.5,102.5C 298.5,102.5 299.5,102.5 300.5,102.5C 299.314,97.9801 297.48,97.6467 295,101.5C 294.293,99.9194 293.46,98.4194 292.5,97C 294.013,94.9774 295.346,95.1441 296.5,97.5C 297.205,94.911 297.205,92.2443 296.5,89.5 Z"/></g>
<g><path style="opacity:1" fill="#b84627" d="M 207.5,108.5 C 214.778,114.109 221.444,120.442 227.5,127.5C 226.833,127.5 226.167,127.5 225.5,127.5C 219.67,121.838 213.67,116.338 207.5,111C 192.661,110.831 177.994,110.331 163.5,109.5C 178.343,109.829 193.01,109.496 207.5,108.5 Z"/></g>
<g><path style="opacity:1" fill="#ffb85e" d="M 226.5,64.5 C 226.5,73.1667 226.5,81.8333 226.5,90.5C 203.167,90.5 179.833,90.5 156.5,90.5C 179.327,89.5025 202.327,89.1692 225.5,89.5C 225.5,81.5 225.5,73.5 225.5,65.5C 192.165,65.3333 158.832,65.5 125.5,66C 124.176,82.1028 124.176,98.2694 125.5,114.5C 126.167,99.3388 126.833,84.3388 127.5,69.5C 127.171,84.0097 127.504,98.3431 128.5,112.5C 131.5,115.833 134.5,119.167 137.5,122.5C 134.775,121.287 132.441,119.454 130.5,117C 129.517,116.409 128.85,116.743 128.5,118C 131.714,121.708 134.714,125.541 137.5,129.5C 133.151,125.412 128.817,121.412 124.5,117.5C 124.539,116.244 124.039,115.244 123,114.5C 122.5,97.8367 122.333,81.17 122.5,64.5C 157.167,64.5 191.833,64.5 226.5,64.5 Z"/></g>
<g><path style="opacity:1" fill="#feca5b" d="M 160.5,107.5 C 161.5,108.167 162.5,108.833 163.5,109.5C 177.994,110.331 192.661,110.831 207.5,111C 213.67,116.338 219.67,121.838 225.5,127.5C 226.486,145.423 226.819,163.423 226.5,181.5C 220.876,188.491 214.543,194.825 207.5,200.5C 207.631,199.624 207.298,198.957 206.5,198.5C 204.929,199.309 203.262,199.643 201.5,199.5C 201.5,199.167 201.5,198.833 201.5,198.5C 204.089,197.581 206.089,195.914 207.5,193.5C 212.465,189.037 217.298,184.37 222,179.5C 222.667,163.833 222.667,148.167 222,132.5C 216.167,126.667 210.333,120.833 204.5,115C 189.5,114.667 174.5,114.333 159.5,114C 158.29,112.961 157.29,111.794 156.5,110.5C 156.52,108.857 155.853,107.524 154.5,106.5C 155,106.167 155.5,105.833 156,105.5C 157.406,106.414 158.906,107.08 160.5,107.5 Z"/></g>
<g><path style="opacity:1" fill="#bd282d" d="M 61.5,123.5 C 66.5,127.833 71.1667,132.5 75.5,137.5C 72.138,136.316 69.4714,134.149 67.5,131C 66.451,130.508 65.451,130.674 64.5,131.5C 63.4104,130.609 63.4104,129.609 64.5,128.5C 63.0476,127.06 62.0476,125.394 61.5,123.5 Z"/></g>
<g><path style="opacity:1" fill="#be2834" d="M 285.5,126.5 C 283.237,130.103 280.57,133.436 277.5,136.5C 275.851,137.649 274.351,138.982 273,140.5C 271.862,140.989 270.695,141.322 269.5,141.5C 274.807,136.528 280.14,131.528 285.5,126.5 Z"/></g>
<g><path style="opacity:1" fill="#534617" d="M 230.5,127.5 C 231.167,143.5 231.833,159.5 232.5,175.5C 232.44,176.043 232.107,176.376 231.5,176.5C 230.501,160.18 230.167,143.847 230.5,127.5 Z"/></g>
<g><path style="opacity:1" fill="#eb1f2a" d="M 303.5,129.5 C 301.983,129.489 300.816,128.823 300,127.5C 298.991,129.025 298.491,130.692 298.5,132.5C 296.669,131.948 295.003,131.948 293.5,132.5C 294.853,133.524 295.52,134.857 295.5,136.5C 293.833,136.5 292.167,136.5 290.5,136.5C 291.401,140.241 290.068,142.241 286.5,142.5C 286.738,146.099 285.738,146.433 283.5,143.5C 280.388,145.184 277.054,145.85 273.5,145.5C 273.5,144.167 273.5,142.833 273.5,141.5C 275.737,142.449 278.071,143.116 280.5,143.5C 280.649,142.448 280.483,141.448 280,140.5C 279.333,139.167 278.667,139.167 278,140.5C 277.51,139.207 277.343,137.873 277.5,136.5C 280.57,133.436 283.237,130.103 285.5,126.5C 288.731,124.78 291.564,122.447 294,119.5C 294.312,116.691 293.812,114.024 292.5,111.5C 294.39,111.297 295.89,111.963 297,113.5C 298.372,109.988 300.038,106.655 302,103.5C 303.37,106.05 304.537,108.717 305.5,111.5C 303.922,112.298 302.256,112.798 300.5,113C 299.253,114.494 299.253,115.994 300.5,117.5C 302.179,116.218 304.013,115.218 306,114.5C 306.167,115 306.333,115.5 306.5,116C 304.308,118.698 304.308,121.531 306.5,124.5C 305.011,124.533 303.678,125.033 302.5,126C 303.337,127.011 303.67,128.178 303.5,129.5 Z"/></g>
<g><path style="opacity:1" fill="#e6c55a" d="M 131.5,129.5 C 135.298,132.796 138.964,136.296 142.5,140C 156.833,140.333 171.167,140.667 185.5,141C 186.354,142.022 187.354,142.855 188.5,143.5C 189.665,151.813 189.832,160.147 189,168.5C 188.292,169.381 187.458,170.047 186.5,170.5C 187.608,161.881 187.775,153.215 187,144.5C 186.5,144 186,143.5 185.5,143C 170.156,142.833 154.822,142.333 139.5,141.5C 138.335,140.416 137.002,139.583 135.5,139C 136.167,138.667 136.833,138.333 137.5,138C 135.212,137.178 132.878,136.511 130.5,136C 131.623,134.956 132.956,134.29 134.5,134C 132.624,133.082 131.624,131.582 131.5,129.5 Z"/></g>
<g><path style="opacity:1" fill="#b32a23" d="M 227.5,127.5 C 228.117,127.611 228.617,127.944 229,128.5C 229.167,145.51 229.667,162.51 230.5,179.5C 234.187,176.145 237.853,172.811 241.5,169.5C 238.349,175.321 233.683,179.321 227.5,181.5C 227.5,163.5 227.5,145.5 227.5,127.5 Z"/></g>
<g><path style="opacity:1" fill="#311206" d="M 85.5,61.5 C 96.6794,61.1721 107.679,61.5054 118.5,62.5C 107.654,62.1722 96.9869,62.5056 86.5,63.5C 79.565,76.3703 72.8983,89.3703 66.5,102.5C 64.0269,106.771 61.5269,111.104 59,115.5C 58.3333,116.5 58.3333,117.5 59,118.5C 78.6191,136.952 97.7858,155.952 116.5,175.5C 116.5,176.167 116.5,176.833 116.5,177.5C 115.5,176.833 114.5,176.167 113.5,175.5C 101.167,162.5 88.5,149.833 75.5,137.5C 71.1667,132.5 66.5,127.833 61.5,123.5C 60.2073,121.704 58.7073,120.037 57,118.5C 56.5172,117.552 56.3505,116.552 56.5,115.5C 60.5791,109.68 63.9125,103.347 66.5,96.5C 72.5632,84.7084 78.8965,73.0417 85.5,61.5 Z"/></g>
<g><path style="opacity:1" fill="#cf5822" d="M 225.5,127.5 C 226.167,127.5 226.833,127.5 227.5,127.5C 227.5,145.5 227.5,163.5 227.5,181.5C 227.167,181.5 226.833,181.5 226.5,181.5C 226.819,163.423 226.486,145.423 225.5,127.5 Z"/></g>
<g><path style="opacity:1" fill="#f9d357" d="M 66.5,102.5 C 66.3398,104.199 66.5065,105.866 67,107.5C 67.8747,104.785 69.7081,103.452 72.5,103.5C 72.5,105.167 72.5,106.833 72.5,108.5C 71.1779,108.67 70.0113,108.337 69,107.5C 68.3333,109.5 68.3333,111.5 69,113.5C 70.7785,114.479 72.4452,114.146 74,112.5C 74.4271,109.058 76.2605,107.558 79.5,108C 80.2764,109.77 80.1097,111.603 79,113.5C 77.9505,112.483 76.7839,112.316 75.5,113C 77.5074,115.562 77.8407,118.396 76.5,121.5C 72.5256,121.21 69.1922,119.543 66.5,116.5C 66.1667,117 65.8333,117.5 65.5,118C 68.2769,122.112 71.9436,125.112 76.5,127C 75.3279,127.419 74.3279,128.085 73.5,129C 76.4772,130.145 78.1439,132.312 78.5,135.5C 79.8333,138.167 81.1667,138.167 82.5,135.5C 83.8333,137.5 85.5,139.167 87.5,140.5C 87.1667,141.167 86.8333,141.833 86.5,142.5C 88.6297,144.893 91.2964,146.56 94.5,147.5C 96.1161,146.885 97.4495,145.885 98.5,144.5C 98.8333,144.833 99.1667,145.167 99.5,145.5C 98.3887,146.611 97.722,147.945 97.5,149.5C 99.2632,152.02 101.263,154.353 103.5,156.5C 101.038,158.225 101.372,159.058 104.5,159C 106.061,158.059 107.395,156.892 108.5,155.5C 104.687,154.027 102.353,151.36 101.5,147.5C 103.2,147.374 104.7,146.707 106,145.5C 109.389,146.667 110.223,148.834 108.5,152C 109.029,153.559 109.696,155.059 110.5,156.5C 109.115,157.551 108.115,158.884 107.5,160.5C 110.213,162.733 113.213,164.4 116.5,165.5C 116.19,162.287 116.523,159.287 117.5,156.5C 117.5,162.833 117.5,169.167 117.5,175.5C 117.167,175.5 116.833,175.5 116.5,175.5C 97.7858,155.952 78.6191,136.952 59,118.5C 58.3333,117.5 58.3333,116.5 59,115.5C 61.5269,111.104 64.0269,106.771 66.5,102.5 Z"/></g>
<g><path style="opacity:1" fill="#d0242f" d="M 57.5,141.5 C 60.089,143.577 63.089,144.91 66.5,145.5C 67.0045,148.342 68.6711,149.675 71.5,149.5C 71.3505,148.448 71.5172,147.448 72,146.5C 72.3333,146.833 72.6667,147.167 73,147.5C 72.1941,150.171 72.3607,152.838 73.5,155.5C 76.0124,155.423 78.0124,156.423 79.5,158.5C 81.9426,163.068 84.6093,167.401 87.5,171.5C 77.1667,161.833 67.1667,151.833 57.5,141.5 Z"/></g>
<g><path style="opacity:1" fill="#edcc5a" d="M 222.5,119.5 C 224.582,119.624 226.082,120.624 227,122.5C 227.206,118.869 228.373,118.535 230.5,121.5C 228.193,123.328 228.526,124.994 231.5,126.5C 232.499,141.152 232.833,155.818 232.5,170.5C 233.833,170.5 235.167,170.5 236.5,170.5C 236.343,169.127 236.51,167.793 237,166.5C 239.391,167.602 239.891,166.936 238.5,164.5C 240.162,163.673 241.495,162.507 242.5,161C 242.167,160.667 241.833,160.333 241.5,160C 243.392,159.027 245.392,158.36 247.5,158C 246.692,157.692 246.025,157.192 245.5,156.5C 246.651,155.269 247.817,155.269 249,156.5C 249.309,155.234 249.809,154.067 250.5,153C 250.167,152.667 249.833,152.333 249.5,152C 252.822,150.428 255.656,148.261 258,145.5C 259,145.5 260,145.5 261,145.5C 261.309,144.234 261.809,143.067 262.5,142C 261.376,141.751 260.376,141.251 259.5,140.5C 261.398,139.266 263.065,139.599 264.5,141.5C 265.696,141.154 265.696,140.654 264.5,140C 265.448,139.517 266.448,139.351 267.5,139.5C 267.768,136.881 267.435,134.381 266.5,132C 269.046,132.632 271.712,133.132 274.5,133.5C 260.833,147.833 246.833,161.833 232.5,175.5C 231.833,159.5 231.167,143.5 230.5,127.5C 227.5,125.167 224.833,122.5 222.5,119.5 Z"/></g>
<g><path style="opacity:1" fill="#de242d" d="M 303.5,129.5 C 290.86,142.806 277.86,155.806 264.5,168.5C 264.34,166.801 264.506,165.134 265,163.5C 265.667,162.167 266.333,162.167 267,163.5C 267.333,162.167 267.667,160.833 268,159.5C 269.049,160.517 270.216,160.684 271.5,160C 274.989,155.039 274.656,150.206 270.5,145.5C 267.574,146.453 264.907,147.787 262.5,149.5C 264.589,146.622 266.923,143.955 269.5,141.5C 270.695,141.322 271.862,140.989 273,140.5C 274.351,138.982 275.851,137.649 277.5,136.5C 277.343,137.873 277.51,139.207 278,140.5C 278.667,139.167 279.333,139.167 280,140.5C 280.483,141.448 280.649,142.448 280.5,143.5C 278.071,143.116 275.737,142.449 273.5,141.5C 273.5,142.833 273.5,144.167 273.5,145.5C 277.054,145.85 280.388,145.184 283.5,143.5C 285.738,146.433 286.738,146.099 286.5,142.5C 290.068,142.241 291.401,140.241 290.5,136.5C 292.167,136.5 293.833,136.5 295.5,136.5C 295.52,134.857 294.853,133.524 293.5,132.5C 295.003,131.948 296.669,131.948 298.5,132.5C 298.491,130.692 298.991,129.025 300,127.5C 300.816,128.823 301.983,129.489 303.5,129.5 Z"/></g>
<g><path style="opacity:1" fill="#370e06" d="M 118.5,62.5 C 119.167,80.1667 119.833,97.8333 120.5,115.5C 127.527,123.194 134.86,130.527 142.5,137.5C 156.994,138.331 171.661,138.831 186.5,139C 188,140.5 189.5,142 191,143.5C 191.667,152.167 191.667,160.833 191,169.5C 189.167,171.333 187.333,173.167 185.5,175C 178.167,175.667 170.833,175.667 163.5,175C 161.967,172.971 160.301,171.138 158.5,169.5C 158.5,165.833 158.5,162.167 158.5,158.5C 145.833,158.5 133.167,158.5 120.5,158.5C 119.833,165.5 119.167,172.5 118.5,179.5C 117.5,179.167 116.833,178.5 116.5,177.5C 116.5,176.833 116.5,176.167 116.5,175.5C 116.833,175.5 117.167,175.5 117.5,175.5C 118.5,169.927 118.833,163.594 118.5,156.5C 132.5,156.5 146.5,156.5 160.5,156.5C 160.334,160.846 160.501,165.179 161,169.5C 161.833,170.333 162.667,171.167 163.5,172C 171.012,172.822 178.345,172.655 185.5,171.5C 186.167,171.5 186.5,171.167 186.5,170.5C 187.458,170.047 188.292,169.381 189,168.5C 189.832,160.147 189.665,151.813 188.5,143.5C 187.354,142.855 186.354,142.022 185.5,141C 171.167,140.667 156.833,140.333 142.5,140C 138.964,136.296 135.298,132.796 131.5,129.5C 127.5,124.833 123.167,120.5 118.5,116.5C 118.5,98.5 118.5,80.5 118.5,62.5 Z"/></g>
<g><path style="opacity:1" fill="#fdcb56" d="M 137.5,122.5 C 140.631,125.129 143.631,127.962 146.5,131C 160.833,131.333 175.167,131.667 189.5,132C 192.333,134.833 195.167,137.667 198,140.5C 198.667,151.167 198.667,161.833 198,172.5C 195.167,175.333 192.333,178.167 189.5,181C 179.5,181.667 169.5,181.667 159.5,181C 157,178.5 154.5,176 152,173.5C 151.503,170.854 151.336,168.187 151.5,165.5C 143.5,165.5 135.5,165.5 127.5,165.5C 127.334,170.179 127.501,174.845 128,179.5C 134.036,185.369 139.87,191.369 145.5,197.5C 163.803,199.487 182.47,200.154 201.5,199.5C 203.262,199.643 204.929,199.309 206.5,198.5C 207.298,198.957 207.631,199.624 207.5,200.5C 207.586,201.496 207.252,202.329 206.5,203C 185.5,203.667 164.5,203.667 143.5,203C 138.631,197.963 133.631,193.13 128.5,188.5C 126.833,186.5 125.167,184.5 123.5,182.5C 123.5,175.5 123.5,168.5 123.5,161.5C 134.167,161.5 144.833,161.5 155.5,161.5C 155.335,164.518 155.502,167.518 156,170.5C 158.167,172.667 160.333,174.833 162.5,177C 170.5,177.667 178.5,177.667 186.5,177C 188.667,174.833 190.833,172.667 193,170.5C 193.667,161.167 193.667,151.833 193,142.5C 190.833,140.333 188.667,138.167 186.5,136C 172.167,135.667 157.833,135.333 143.5,135C 142.956,134.283 142.289,133.783 141.5,133.5C 139.833,132.5 138.5,131.167 137.5,129.5C 134.714,125.541 131.714,121.708 128.5,118C 128.85,116.743 129.517,116.409 130.5,117C 132.441,119.454 134.775,121.287 137.5,122.5 Z"/></g>
<g><path style="opacity:1" fill="#c43b26" d="M 141.5,133.5 C 142.289,133.783 142.956,134.283 143.5,135C 157.833,135.333 172.167,135.667 186.5,136C 188.667,138.167 190.833,140.333 193,142.5C 193.667,151.833 193.667,161.167 193,170.5C 190.833,172.667 188.667,174.833 186.5,177C 178.5,177.667 170.5,177.667 162.5,177C 160.333,174.833 158.167,172.667 156,170.5C 155.502,167.518 155.335,164.518 155.5,161.5C 144.679,160.505 133.679,160.172 122.5,160.5C 122.175,168.019 122.508,175.352 123.5,182.5C 125.167,184.5 126.833,186.5 128.5,188.5C 125.167,187.167 122.833,184.833 121.5,181.5C 121.5,174.167 121.5,166.833 121.5,159.5C 133.5,159.5 145.5,159.5 157.5,159.5C 157.187,163.042 157.521,166.375 158.5,169.5C 160.301,171.138 161.967,172.971 163.5,175C 170.833,175.667 178.167,175.667 185.5,175C 187.333,173.167 189.167,171.333 191,169.5C 191.667,160.833 191.667,152.167 191,143.5C 189.5,142 188,140.5 186.5,139C 171.661,138.831 156.994,138.331 142.5,137.5C 142.167,136.167 141.833,134.833 141.5,133.5 Z"/></g>
<g><path style="opacity:1" fill="#070608" d="M 336.5,117.5 C 324.926,127.57 313.759,138.237 303,149.5C 269.532,185.303 235.698,220.803 201.5,256C 195.774,258.995 189.607,260.495 183,260.5C 181.293,260.492 179.793,260.158 178.5,259.5C 179.341,257.621 179.675,255.621 179.5,253.5C 187.333,245.281 195.333,237.281 203.5,229.5C 210.091,224.249 216.425,218.582 222.5,212.5C 223.325,211.614 224.325,211.281 225.5,211.5C 225.392,209.486 226.058,207.82 227.5,206.5C 228.167,205.5 228.833,204.5 229.5,203.5C 234.081,200.598 238.414,197.264 242.5,193.5C 243.386,192.675 243.719,191.675 243.5,190.5C 250.445,183.22 257.445,175.886 264.5,168.5C 277.86,155.806 290.86,142.806 303.5,129.5C 306.5,126.833 309.5,124.167 312.5,121.5C 313.492,121.672 314.158,121.338 314.5,120.5C 321.798,119.24 329.131,118.24 336.5,117.5 Z"/></g>
<g><path style="opacity:0.431" fill="#250401" d="M 51.5,90.5 C 51.5,91.1667 51.5,91.8333 51.5,92.5C 45.9399,101.119 41.2732,110.286 37.5,120C 43.2216,127.894 49.8882,135.061 57.5,141.5C 67.1667,151.833 77.1667,161.833 87.5,171.5C 89.1667,173.833 91.1667,175.833 93.5,177.5C 99.5352,184.536 106.202,190.869 113.5,196.5C 114.5,197.833 115.5,199.167 116.5,200.5C 120.207,205.208 124.54,209.208 129.5,212.5C 136.887,220.554 144.554,228.221 152.5,235.5C 156.167,241.167 160.833,245.833 166.5,249.5C 168.812,252.479 171.479,255.146 174.5,257.5C 176.186,256.143 177.852,254.81 179.5,253.5C 179.675,255.621 179.341,257.621 178.5,259.5C 176.473,259.662 174.473,259.495 172.5,259C 127.639,213.806 82.4724,168.972 37,124.5C 35.627,122.305 35.2937,119.971 36,117.5C 40.1688,107.817 45.3355,98.8167 51.5,90.5 Z"/></g>
<g><path style="opacity:1" fill="#b62732" d="M 93.5,177.5 C 94.5832,177.539 95.5832,177.873 96.5,178.5C 101.517,184.351 107.017,189.684 113,194.5C 113.464,195.094 113.631,195.761 113.5,196.5C 106.202,190.869 99.5352,184.536 93.5,177.5 Z"/></g>
<g><path style="opacity:1" fill="#e92429" d="M 151.5,85.5 C 151.334,92.175 151.5,98.8417 152,105.5C 152.996,107.66 154.496,109.327 156.5,110.5C 157.29,111.794 158.29,112.961 159.5,114C 174.5,114.333 189.5,114.667 204.5,115C 210.333,120.833 216.167,126.667 222,132.5C 222.667,148.167 222.667,163.833 222,179.5C 217.298,184.37 212.465,189.037 207.5,193.5C 204.376,193.132 202.043,194.298 200.5,197C 182.503,197.5 164.503,197.667 146.5,197.5C 146.167,197.5 145.833,197.5 145.5,197.5C 139.87,191.369 134.036,185.369 128,179.5C 127.501,174.845 127.334,170.179 127.5,165.5C 135.5,165.5 143.5,165.5 151.5,165.5C 151.336,168.187 151.503,170.854 152,173.5C 154.5,176 157,178.5 159.5,181C 169.5,181.667 179.5,181.667 189.5,181C 192.333,178.167 195.167,175.333 198,172.5C 198.667,161.833 198.667,151.167 198,140.5C 195.167,137.667 192.333,134.833 189.5,132C 175.167,131.667 160.833,131.333 146.5,131C 143.631,127.962 140.631,125.129 137.5,122.5C 134.5,119.167 131.5,115.833 128.5,112.5C 128.5,98.5 128.5,84.5 128.5,70.5C 159.167,70.5 189.833,70.5 220.5,70.5C 220.5,75.1667 220.5,79.8333 220.5,84.5C 197.327,84.1692 174.327,84.5025 151.5,85.5 Z"/></g>
<g><path style="opacity:1" fill="#330908" d="M 243.5,190.5 C 243.719,191.675 243.386,192.675 242.5,193.5C 238.414,197.264 234.081,200.598 229.5,203.5C 233.703,198.721 238.37,194.387 243.5,190.5 Z"/></g>
<g><path style="opacity:1" fill="#b2232b" d="M 116.5,200.5 C 119.234,202.55 122.234,204.216 125.5,205.5C 126.604,208.051 127.938,210.384 129.5,212.5C 124.54,209.208 120.207,205.208 116.5,200.5 Z"/></g>
<g><path style="opacity:1" fill="#450b0f" d="M 227.5,206.5 C 226.058,207.82 225.392,209.486 225.5,211.5C 224.325,211.281 223.325,211.614 222.5,212.5C 216.425,218.582 210.091,224.249 203.5,229.5C 210.964,221.031 218.964,213.364 227.5,206.5 Z"/></g>
<g><path style="opacity:1" fill="#e6212b" d="M 89.5,28.5 C 90.6201,33.9019 90.4534,39.2352 89,44.5C 88,43.1667 87,43.1667 86,44.5C 85.5983,45.8721 85.0983,47.2054 84.5,48.5C 85.8881,49.4555 87.2214,50.4555 88.5,51.5C 87.4478,53.2234 87.4478,54.8901 88.5,56.5C 87.91,57.7989 86.91,58.6322 85.5,59C 97.0074,59.1694 108.341,59.6694 119.5,60.5C 107.988,60.1719 96.6544,60.5052 85.5,61.5C 78.8965,73.0417 72.5632,84.7084 66.5,96.5C 64.1904,99.1019 62.3571,102.102 61,105.5C 59.9887,106.337 58.8221,106.67 57.5,106.5C 57.2962,109.518 56.9629,112.518 56.5,115.5C 56.3505,116.552 56.5172,117.552 57,118.5C 58.7073,120.037 60.2073,121.704 61.5,123.5C 62.0476,125.394 63.0476,127.06 64.5,128.5C 63.4104,129.609 63.4104,130.609 64.5,131.5C 65.451,130.674 66.451,130.508 67.5,131C 69.4714,134.149 72.138,136.316 75.5,137.5C 88.5,149.833 101.167,162.5 113.5,175.5C 114.744,179.412 117.411,181.412 121.5,181.5C 122.833,184.833 125.167,187.167 128.5,188.5C 133.631,193.13 138.631,197.963 143.5,203C 164.5,203.667 185.5,203.667 206.5,203C 207.252,202.329 207.586,201.496 207.5,200.5C 214.543,194.825 220.876,188.491 226.5,181.5C 226.833,181.5 227.167,181.5 227.5,181.5C 233.683,179.321 238.349,175.321 241.5,169.5C 247.837,163.838 254.504,158.504 261.5,153.5C 262.246,152.264 262.579,150.93 262.5,149.5C 264.907,147.787 267.574,146.453 270.5,145.5C 274.656,150.206 274.989,155.039 271.5,160C 270.216,160.684 269.049,160.517 268,159.5C 267.667,160.833 267.333,162.167 267,163.5C 266.333,162.167 265.667,162.167 265,163.5C 264.506,165.134 264.34,166.801 264.5,168.5C 257.445,175.886 250.445,183.22 243.5,190.5C 238.37,194.387 233.703,198.721 229.5,203.5C 228.833,204.5 228.167,205.5 227.5,206.5C 218.964,213.364 210.964,221.031 203.5,229.5C 195.333,237.281 187.333,245.281 179.5,253.5C 177.852,254.81 176.186,256.143 174.5,257.5C 171.479,255.146 168.812,252.479 166.5,249.5C 162.896,245.881 159.562,241.881 156.5,237.5C 155.423,236.295 154.09,235.628 152.5,235.5C 144.554,228.221 136.887,220.554 129.5,212.5C 127.938,210.384 126.604,208.051 125.5,205.5C 122.234,204.216 119.234,202.55 116.5,200.5C 115.5,199.167 114.5,197.833 113.5,196.5C 113.631,195.761 113.464,195.094 113,194.5C 107.017,189.684 101.517,184.351 96.5,178.5C 95.5832,177.873 94.5832,177.539 93.5,177.5C 91.1667,175.833 89.1667,173.833 87.5,171.5C 84.6093,167.401 81.9426,163.068 79.5,158.5C 78.0124,156.423 76.0124,155.423 73.5,155.5C 72.3607,152.838 72.1941,150.171 73,147.5C 72.6667,147.167 72.3333,146.833 72,146.5C 71.5172,147.448 71.3505,148.448 71.5,149.5C 68.6711,149.675 67.0045,148.342 66.5,145.5C 63.089,144.91 60.089,143.577 57.5,141.5C 49.8882,135.061 43.2216,127.894 37.5,120C 41.2732,110.286 45.9399,101.119 51.5,92.5C 52.5845,90.6814 53.9178,89.0147 55.5,87.5C 60.2303,77.9878 65.2303,68.6544 70.5,59.5C 71.1556,57.5466 71.4889,55.5466 71.5,53.5C 72.4959,53.5858 73.3292,53.2524 74,52.5C 77.7932,44.5848 81.2932,36.5848 84.5,28.5C 86.1667,28.5 87.8333,28.5 89.5,28.5 Z"/></g>
<g><path style="opacity:1" fill="#b4272c" d="M 203.5,205.5 C 205.028,205.517 205.528,206.184 205,207.5C 195.606,217.397 185.773,226.73 175.5,235.5C 183.833,226.833 192.167,218.167 200.5,209.5C 200.5,208.833 200.833,208.5 201.5,208.5C 202.906,208.027 203.573,207.027 203.5,205.5 Z"/></g>
<g><path style="opacity:1" fill="#2d0c03" d="M 203.5,205.5 C 203.573,207.027 202.906,208.027 201.5,208.5C 192.859,207.168 183.859,206.502 174.5,206.5C 165.5,206.667 156.5,206.833 147.5,207C 148.044,207.717 148.711,208.217 149.5,208.5C 150.167,208.833 150.833,209.167 151.5,209.5C 154.833,213.5 158.5,217.167 162.5,220.5C 166.146,224.812 170.146,228.812 174.5,232.5C 178.854,228.478 183.187,224.478 187.5,220.5C 188.5,220.167 189.167,219.5 189.5,218.5C 190.167,217.5 190.833,216.5 191.5,215.5C 194.167,213.167 196.833,210.833 199.5,208.5C 199.5,209.167 199.833,209.5 200.5,209.5C 192.167,218.167 183.833,226.833 175.5,235.5C 164.934,226.603 154.934,216.937 145.5,206.5C 164.822,205.5 184.155,205.167 203.5,205.5 Z"/></g>
<g><path style="opacity:1" fill="#f7d456" d="M 168.5,217.5 C 170.223,218.8 172.39,219.467 175,219.5C 177.625,219.419 179.959,218.752 182,217.5C 182.383,218.056 182.883,218.389 183.5,218.5C 184.833,219.167 186.167,219.833 187.5,220.5C 183.187,224.478 178.854,228.478 174.5,232.5C 170.146,228.812 166.146,224.812 162.5,220.5C 164.639,219.842 166.639,218.842 168.5,217.5 Z"/></g>
<g><path style="opacity:1" fill="#876d2c" d="M 189.5,218.5 C 189.167,219.5 188.5,220.167 187.5,220.5C 186.167,219.833 184.833,219.167 183.5,218.5C 184.209,217.596 185.209,217.263 186.5,217.5C 186.281,216.325 186.614,215.325 187.5,214.5C 188.172,215.949 188.839,217.282 189.5,218.5 Z"/></g>
<g><path style="opacity:1" fill="#d0b34e" d="M 176.5,211.5 C 178.347,210.427 180.347,210.427 182.5,211.5C 182.281,212.675 182.614,213.675 183.5,214.5C 184.696,214.154 184.696,213.654 183.5,213C 185.058,212.79 186.391,212.29 187.5,211.5C 188.393,213.297 189.726,214.63 191.5,215.5C 190.833,216.5 190.167,217.5 189.5,218.5C 188.839,217.282 188.172,215.949 187.5,214.5C 186.614,215.325 186.281,216.325 186.5,217.5C 185.209,217.263 184.209,217.596 183.5,218.5C 182.883,218.389 182.383,218.056 182,217.5C 179.959,218.752 177.625,219.419 175,219.5C 172.39,219.467 170.223,218.8 168.5,217.5C 170.042,218.301 171.708,218.634 173.5,218.5C 173.5,216.167 173.5,213.833 173.5,211.5C 174.167,211.833 174.833,212.167 175.5,212.5C 179.474,213.169 179.474,215.003 175.5,218C 177.167,218.667 178.833,218.667 180.5,218C 179.833,217.667 179.167,217.333 178.5,217C 181.487,213.792 180.82,211.959 176.5,211.5 Z"/></g>
<g><path style="opacity:1" fill="#3e290a" d="M 169.5,211.5 C 170.833,211.5 172.167,211.5 173.5,211.5C 173.5,213.833 173.5,216.167 173.5,218.5C 171.708,218.634 170.042,218.301 168.5,217.5C 168.325,215.379 168.659,213.379 169.5,211.5 Z"/></g>
<g><path style="opacity:1" fill="#d1bc71" d="M 170.5,212.5 C 171.649,212.791 172.316,213.624 172.5,215C 172.167,215.833 171.833,216.667 171.5,217.5C 170.548,215.955 170.215,214.288 170.5,212.5 Z"/></g>
<g><path style="opacity:1" fill="#dec05d" d="M 151.5,209.5 C 153.844,209.675 155.511,210.842 156.5,213C 158.545,213.49 160.545,213.323 162.5,212.5C 163.675,212.281 164.675,212.614 165.5,213.5C 164.352,215.149 163.019,216.649 161.5,218C 163.167,218.667 164.833,218.667 166.5,218C 165.833,217.667 165.167,217.333 164.5,217C 166.155,215.556 166.822,213.722 166.5,211.5C 167.5,211.5 168.5,211.5 169.5,211.5C 168.659,213.379 168.325,215.379 168.5,217.5C 166.639,218.842 164.639,219.842 162.5,220.5C 158.5,217.167 154.833,213.5 151.5,209.5 Z"/></g>
<g><path style="opacity:1" fill="#3c2805" d="M 162.5,212.5 C 163.568,211.566 164.901,211.232 166.5,211.5C 166.822,213.722 166.155,215.556 164.5,217C 165.167,217.333 165.833,217.667 166.5,218C 164.833,218.667 163.167,218.667 161.5,218C 163.019,216.649 164.352,215.149 165.5,213.5C 164.675,212.614 163.675,212.281 162.5,212.5 Z"/></g>
<g><path style="opacity:1" fill="#4f3917" d="M 176.5,211.5 C 180.82,211.959 181.487,213.792 178.5,217C 179.167,217.333 179.833,217.667 180.5,218C 178.833,218.667 177.167,218.667 175.5,218C 179.474,215.003 179.474,213.169 175.5,212.5C 175.5,211.833 175.833,211.5 176.5,211.5 Z"/></g>
<g><path style="opacity:1" fill="#3f2301" d="M 182.5,211.5 C 184.167,211.5 185.833,211.5 187.5,211.5C 186.391,212.29 185.058,212.79 183.5,213C 184.696,213.654 184.696,214.154 183.5,214.5C 182.614,213.675 182.281,212.675 182.5,211.5 Z"/></g>
<g><path style="opacity:1" fill="#f5d357" d="M 149.5,208.5 C 166.167,207.167 182.833,207.167 199.5,208.5C 196.833,210.833 194.167,213.167 191.5,215.5C 189.726,214.63 188.393,213.297 187.5,211.5C 185.833,211.5 184.167,211.5 182.5,211.5C 180.347,210.427 178.347,210.427 176.5,211.5C 175.833,211.5 175.5,211.833 175.5,212.5C 174.833,212.167 174.167,211.833 173.5,211.5C 172.167,211.5 170.833,211.5 169.5,211.5C 168.5,211.5 167.5,211.5 166.5,211.5C 164.901,211.232 163.568,211.566 162.5,212.5C 160.545,213.323 158.545,213.49 156.5,213C 155.511,210.842 153.844,209.675 151.5,209.5C 150.833,209.167 150.167,208.833 149.5,208.5 Z"/></g>
<g><path style="opacity:1" fill="#0d0700" d="M 201.5,208.5 C 200.833,208.5 200.5,208.833 200.5,209.5C 199.833,209.5 199.5,209.167 199.5,208.5C 182.833,207.167 166.167,207.167 149.5,208.5C 148.711,208.217 148.044,207.717 147.5,207C 156.5,206.833 165.5,206.667 174.5,206.5C 183.859,206.502 192.859,207.168 201.5,208.5 Z"/></g>
<g><path style="opacity:1" fill="#ffbb6e" d="M 145.5,197.5 C 145.833,197.5 146.167,197.5 146.5,197.5C 164.659,198.497 182.992,198.83 201.5,198.5C 201.5,198.833 201.5,199.167 201.5,199.5C 182.47,200.154 163.803,199.487 145.5,197.5 Z"/></g>
<g><path style="opacity:1" fill="#cc3912" d="M 207.5,193.5 C 206.089,195.914 204.089,197.581 201.5,198.5C 182.992,198.83 164.659,198.497 146.5,197.5C 164.503,197.667 182.503,197.5 200.5,197C 202.043,194.298 204.376,193.132 207.5,193.5 Z"/></g>
<g><path style="opacity:1" fill="#5a0400" d="M 120.5,158.5 C 120.831,165.863 120.497,173.197 119.5,180.5C 118.893,180.376 118.56,180.043 118.5,179.5C 119.167,172.5 119.833,165.5 120.5,158.5 Z"/></g>
<g><path style="opacity:1" fill="#fe8a51" d="M 155.5,161.5 C 144.833,161.5 134.167,161.5 123.5,161.5C 123.5,168.5 123.5,175.5 123.5,182.5C 122.508,175.352 122.175,168.019 122.5,160.5C 133.679,160.172 144.679,160.505 155.5,161.5 Z"/></g>
<g><path style="opacity:1" fill="#af3735" d="M 120.5,158.5 C 133.167,158.5 145.833,158.5 158.5,158.5C 158.5,162.167 158.5,165.833 158.5,169.5C 157.521,166.375 157.187,163.042 157.5,159.5C 145.5,159.5 133.5,159.5 121.5,159.5C 121.5,166.833 121.5,174.167 121.5,181.5C 117.411,181.412 114.744,179.412 113.5,175.5C 114.5,176.167 115.5,176.833 116.5,177.5C 116.833,178.5 117.5,179.167 118.5,179.5C 118.56,180.043 118.893,180.376 119.5,180.5C 120.497,173.197 120.831,165.863 120.5,158.5 Z"/></g>
<g><path style="opacity:1" fill="#eace68" d="M 185.5,171.5 C 178.345,172.655 171.012,172.822 163.5,172C 162.667,171.167 161.833,170.333 161,169.5C 160.501,165.179 160.334,160.846 160.5,156.5C 146.5,156.5 132.5,156.5 118.5,156.5C 118.833,163.594 118.5,169.927 117.5,175.5C 117.5,169.167 117.5,162.833 117.5,156.5C 124.468,155.169 131.802,154.503 139.5,154.5C 146.833,154.667 154.167,154.833 161.5,155C 162.516,155.519 163.182,156.353 163.5,157.5C 162.256,161.719 162.256,165.885 163.5,170C 170.806,170.942 178.14,171.442 185.5,171.5 Z"/></g>
<g><path style="opacity:1" fill="#be252a" d="M 262.5,149.5 C 262.579,150.93 262.246,152.264 261.5,153.5C 254.504,158.504 247.837,163.838 241.5,169.5C 247.889,162.109 254.889,155.443 262.5,149.5 Z"/></g>
<g><path style="opacity:1" fill="#ac2830" d="M 152.5,235.5 C 154.09,235.628 155.423,236.295 156.5,237.5C 159.562,241.881 162.896,245.881 166.5,249.5C 160.833,245.833 156.167,241.167 152.5,235.5 Z"/></g>
</svg>
